<svg width="662" height="170" viewBox="0 0 662 170" fill="none" xmlns="http://www.w3.org/2000/svg">
<g clip-path="url(#clip0_1900_11886)">
<path d="M252.947 79.1058C250.066 75.9523 246.551 73.4428 242.632 71.7415C238.713 70.0402 234.478 69.1855 230.205 69.2335C225.262 69.1535 220.384 70.3662 216.055 72.7514C214.423 73.6536 212.901 74.7425 211.52 75.996C210.384 77.0285 209.342 78.1595 208.405 79.3756H208V33.8091H191.755V136.032H207.187V126.298H207.46C209.673 130.046 212.947 133.055 216.868 134.946C220.887 136.929 225.314 137.948 229.797 137.921C234.761 137.921 239.206 136.998 243.134 135.153C246.948 133.387 250.358 130.856 253.151 127.716C255.96 124.511 258.121 120.792 259.514 116.765C261.024 112.441 261.78 107.889 261.746 103.309C261.784 98.7456 261.005 94.2122 259.448 89.9223C258.003 85.9299 255.795 82.2562 252.947 79.1058V79.1058ZM244.079 110.867C243.349 113.314 242.175 115.606 240.617 117.63C239.043 119.646 237.059 121.304 234.795 122.496C232.448 123.758 229.696 124.389 226.54 124.389C223.768 124.438 221.026 123.812 218.551 122.566C216.249 121.385 214.204 119.76 212.535 117.785C210.867 115.808 209.582 113.538 208.744 111.092C207.898 108.681 207.464 106.144 207.46 103.589C207.468 101.011 207.902 98.451 208.744 96.0137C209.572 93.5429 210.858 91.25 212.535 89.2547C214.216 87.2646 216.261 85.6128 218.561 84.3878C221.023 83.1007 223.769 82.4524 226.547 82.5026C229.703 82.5026 232.455 83.1114 234.802 84.329C237.071 85.4839 239.059 87.1229 240.624 89.1302C242.173 91.1344 243.345 93.402 244.086 95.8235C244.844 98.2466 245.233 100.77 245.238 103.309C245.229 105.872 244.838 108.419 244.079 110.867" fill="#F95151"/>
<path d="M302.353 69.237C298.024 69.237 294.233 70.4084 290.982 72.7514C287.711 75.1202 285.1 78.2851 283.398 81.9456H283.128V71.1291H267.551V136.032H283.799V101.282C283.863 99.6846 284.095 98.0984 284.492 96.5499C284.984 94.4696 285.857 92.4983 287.067 90.7351C288.431 88.7422 290.224 87.0793 292.315 85.8682C294.567 84.5169 297.545 83.84 301.249 83.8377C301.996 83.841 302.742 83.8861 303.485 83.9726C304.418 84.0983 305.343 84.2796 306.254 84.5157V69.6417C305.64 69.4456 305.004 69.3293 304.36 69.2958C303.636 69.2519 302.959 69.23 302.329 69.23" fill="#F95151"/>
<path d="M329.754 71.1291H313.509V136.035H329.754V71.1291Z" fill="#F95151"/>
<path d="M321.495 39.3539C318.518 39.3539 316.059 40.3225 314.118 42.2596C313.198 43.1431 312.465 44.2033 311.965 45.3767C311.465 46.5501 311.207 47.8123 311.207 49.0878C311.207 50.3632 311.465 51.6255 311.965 52.7989C312.465 53.9723 313.198 55.0325 314.118 55.916C316.057 57.8577 318.516 58.8263 321.495 58.8216C324.474 58.817 326.979 57.8946 329.01 56.0544C329.97 55.1664 330.737 54.0894 331.261 52.8911C331.786 51.6928 332.056 50.3991 332.056 49.0913C332.056 47.7834 331.786 46.4897 331.261 45.2914C330.737 44.0931 329.97 43.0161 329.01 42.1281C326.981 40.2833 324.476 39.3609 321.495 39.3609" fill="#F95151"/>
<path d="M390.333 79.3894H389.928C388.991 78.1741 387.948 77.0433 386.813 76.0099C385.433 74.7555 383.911 73.6666 382.278 72.7653C377.949 70.3728 373.068 69.1552 368.121 69.2335C363.848 69.1851 359.612 70.0395 355.693 71.7408C351.773 73.4421 348.257 75.9519 345.376 79.1057C342.527 82.2555 340.321 85.9294 338.878 89.9223C337.318 94.2115 336.538 98.7452 336.576 103.309C336.543 107.889 337.298 112.441 338.809 116.765C340.202 120.792 342.364 124.512 345.175 127.716C347.967 130.856 351.377 133.388 355.192 135.153C359.115 136.998 363.56 137.921 368.526 137.921C373.009 137.948 377.437 136.929 381.458 134.946C385.378 133.052 388.65 130.043 390.866 126.298H391.136V136.032H406.571V33.8091H390.323L390.333 79.3894ZM389.582 111.085C388.738 113.532 387.447 115.802 385.774 117.778C384.104 119.761 382.057 121.393 379.751 122.579C377.276 123.825 374.534 124.451 371.762 124.402C368.603 124.402 365.85 123.772 363.503 122.51C361.24 121.318 359.255 119.659 357.681 117.643C356.122 115.621 354.948 113.328 354.22 110.881C353.463 108.428 353.075 105.876 353.07 103.309C353.073 100.764 353.46 98.235 354.22 95.8062C354.958 93.3841 356.131 91.1162 357.681 89.1129C359.246 87.1056 361.234 85.4666 363.503 84.3117C365.85 83.0941 368.603 82.4853 371.762 82.4853C374.542 82.4392 377.289 83.091 379.751 84.3808C382.05 85.6069 384.094 87.2586 385.774 89.2478C387.455 91.2383 388.746 93.5263 389.582 95.993C390.426 98.4301 390.861 100.99 390.87 103.568C390.864 106.124 390.429 108.66 389.582 111.071" fill="#F95151"/>
<path d="M466.88 80.8629H466.607C464.414 77.0408 461.11 73.9754 457.133 72.0734C453.114 70.1715 448.717 69.2018 444.27 69.2369C439.396 69.2369 434.995 70.1375 431.068 71.9385C427.261 73.6575 423.851 76.1435 421.05 79.2406C418.245 82.3981 416.084 86.0723 414.688 90.0572C413.181 94.313 412.426 98.7981 412.455 103.312C412.429 107.765 413.209 112.185 414.757 116.36C416.2 120.323 418.383 123.975 421.189 127.125C424.003 130.235 427.438 132.723 431.272 134.427C435.246 136.228 439.668 137.129 444.54 137.132C449.054 137.132 453.138 136.289 456.793 134.603C460.372 132.982 463.472 130.466 465.793 127.298H466.063V132.047C466.091 135.063 465.75 138.072 465.049 141.006C464.44 143.574 463.286 145.98 461.664 148.062C459.97 150.125 457.783 151.728 455.305 152.722C452.64 153.852 449.367 154.417 445.488 154.417C441.358 154.403 437.268 153.601 433.439 152.054C429.471 150.478 425.84 148.16 422.743 145.223L413.397 157.8C415.574 159.583 417.937 161.128 420.444 162.407C423.073 163.765 425.813 164.895 428.634 165.787C431.463 166.684 434.356 167.363 437.288 167.817C440.042 168.253 442.825 168.478 445.613 168.492C451.931 168.492 457.392 167.59 461.996 165.787C466.6 163.983 470.407 161.438 473.419 158.149C476.444 154.856 478.679 150.845 480.124 146.115C481.568 141.385 482.289 136.088 482.287 130.224V71.1291H466.856L466.88 80.8629ZM465.523 110.867C464.663 113.27 463.354 115.488 461.667 117.405C459.897 119.398 457.716 120.984 455.274 122.054C452.831 123.124 450.186 123.653 447.52 123.603C444.823 123.647 442.154 123.047 439.735 121.853C437.489 120.728 435.505 119.143 433.913 117.201C432.323 115.252 431.086 113.041 430.258 110.666C429.401 108.242 428.967 105.689 428.974 103.119C428.952 100.371 429.386 97.6378 430.258 95.0313C431.046 92.6383 432.287 90.4189 433.913 88.4937C435.518 86.6341 437.503 85.1407 439.735 84.1145C442.224 82.9991 444.928 82.4475 447.655 82.4991C450.403 82.4525 453.128 83.0037 455.641 84.1145C457.939 85.159 459.992 86.6745 461.667 88.5628C463.364 90.4966 464.673 92.7384 465.523 95.1662C466.434 97.7195 466.893 100.412 466.88 103.122C466.889 105.765 466.429 108.388 465.523 110.87" fill="#F95151"/>
<path d="M545.154 78.0922C542.372 75.1724 538.973 72.9084 535.206 71.4646C531.206 69.951 526.959 69.1955 522.683 69.237C518.029 69.196 513.41 70.0449 509.076 71.7379C504.971 73.3186 501.239 75.7334 498.116 78.8296C494.994 81.9257 492.548 85.6358 490.934 89.7251C489.173 94.0074 488.293 98.7625 488.293 103.99C488.293 109.31 489.173 114.065 490.934 118.256C492.579 122.273 495.073 125.888 498.245 128.854C501.444 131.792 505.195 134.065 509.28 135.544C513.748 137.162 518.47 137.965 523.223 137.914C535.407 137.914 544.703 133.586 551.112 124.932L540.281 116.284C538.513 118.864 536.143 120.975 533.375 122.434C530.578 123.922 527.149 124.666 523.088 124.669C520.776 124.674 518.482 124.261 516.317 123.451C514.209 122.673 512.243 121.553 510.498 120.137C508.8 118.764 507.395 117.063 506.369 115.136C505.315 113.146 504.692 110.958 504.541 108.712H553.954C554.044 107.995 554.091 107.273 554.092 106.55V104.385C554.092 98.525 553.302 93.409 551.721 89.0367C550.14 84.6645 547.948 81.014 545.144 78.0853L545.154 78.0922ZM504.531 97.0826C504.891 92.4843 506.763 88.7208 510.149 85.7921C513.534 82.8634 517.663 81.3991 522.537 81.3991C524.881 81.347 527.209 81.7841 529.374 82.6824C531.183 83.4438 532.802 84.5965 534.113 86.0577C535.424 87.5188 536.394 89.2522 536.954 91.133C537.545 93.0607 537.841 95.0665 537.833 97.0826H504.531Z" fill="#F95151"/>
<path d="M645.077 71.1291L628.967 118.321H628.697L610.556 71.1291H583.21V60.5823C583.214 58.9059 583.35 57.2324 583.615 55.5771C583.868 53.9242 584.394 52.325 585.173 50.845C585.943 49.3977 587.088 48.1838 588.489 47.3306C589.931 46.4312 591.827 45.9804 594.176 45.9781C595.287 45.9731 596.396 46.0634 597.492 46.2479C598.474 46.4167 599.446 46.6419 600.403 46.9224L601.487 33.1311C600.268 32.7801 599.022 32.5314 597.762 32.3874C596.255 32.2395 594.741 32.1725 593.227 32.1867C588.174 32.1867 583.977 32.9754 580.638 34.5528C577.461 36.0012 574.694 38.2141 572.583 40.9936C570.507 43.7936 569.031 46.992 568.249 50.3884C567.38 54.043 566.948 57.7877 566.962 61.544V71.1464H554.642V84.1249H566.962V136.032H583.21V84.1076H598.125L620.438 136.032L617.188 144.282C616.465 145.993 615.788 147.48 615.156 148.744C614.594 149.902 613.865 150.972 612.992 151.919C612.168 152.783 611.145 153.434 610.012 153.815C608.612 154.252 607.149 154.457 605.682 154.42C604.708 154.416 603.736 154.349 602.771 154.22C601.689 154.074 600.624 153.825 599.59 153.476L598.236 167.537C599.637 167.891 601.063 168.139 602.501 168.281C603.899 168.419 605.275 168.487 606.627 168.485C610.238 168.485 613.33 168.079 615.904 167.267C618.35 166.524 620.626 165.306 622.602 163.684C624.551 162.043 626.201 160.077 627.479 157.872C628.95 155.337 630.223 152.693 631.286 149.962L662 71.1291H645.077Z" fill="#F95151"/>
<path d="M101.02 25.2825L60.202 1.72963C58.2375 0.596636 56.0093 0.000183105 53.7411 0.000183105C51.473 0.000183105 49.2447 0.596636 47.2803 1.72963L6.45911 25.2825C4.49506 26.4153 2.8641 28.0448 1.73026 30.0074C0.59641 31.9699 -0.000346639 34.1961 1.5106e-07 36.4623V83.5646C-0.000252534 85.8311 0.596512 88.0578 1.73032 90.0209C2.86412 91.984 4.49502 93.6142 6.45911 94.7478L24.3272 105.056V138.996L101.02 94.7478C102.982 93.6133 104.612 91.9827 105.745 90.0197C106.877 88.0567 107.473 85.8305 107.472 83.5646V36.4623C107.472 34.1961 106.875 31.9699 105.742 30.0074C104.608 28.0448 102.977 26.4153 101.013 25.2825" fill="#F95151"/>
<path d="M154.759 56.2862L115.8 33.8021C115.912 34.6821 115.969 35.5682 115.97 36.4552V83.5645C115.965 87.3195 114.973 91.0073 113.094 94.2592C111.215 97.5111 108.515 100.213 105.263 102.095L62.2304 126.924L136.894 170.017V136.059L154.759 125.741C156.723 124.608 158.355 122.979 159.489 121.017C160.624 119.054 161.221 116.828 161.222 114.561V67.4694C161.222 65.2025 160.624 62.9755 159.49 61.0124C158.355 59.0494 156.724 57.4193 154.759 56.2862" fill="#F95151"/>
</g>
<defs>
<clipPath id="clip0_1900_11886">
<rect width="662" height="170" fill="white"/>
</clipPath>
</defs>
</svg>
